<svg xmlns="http://www.w3.org/2000/svg" version="1.1" xmlns:xlink="http://www.w3.org/1999/xlink" width="512" height="512" x="0" y="0" viewBox="0 0 48 48" style="enable-background:new 0 0 512 512" xml:space="preserve"><g><path d="M36 34a1 1 0 0 1-1-1V19.177a2.994 2.994 0 0 1 3-3 10.178 10.178 0 0 0 4.552-1.075 1 1 0 0 1 .892 1.79A12.166 12.166 0 0 1 38 18.18a1 1 0 0 0-1 1V33a1 1 0 0 1-1 1z" fill="#ffffff" opacity="1" data-original="#000000"></path><path d="M31 27a6 6 0 1 0 6 6 6.006 6.006 0 0 0-6-6z" fill="#ffffff" opacity="1" data-original="#000000"></path><path d="M34 40.41V41a3.009 3.009 0 0 1-3 3H7a3.009 3.009 0 0 1-3-3v-2a15 15 0 0 1 22.81-12.81A8 8 0 0 0 31 41a7.9 7.9 0 0 0 3-.59z" fill="#ffffff" opacity="1" data-original="#000000"></path><circle cx="19" cy="15" r="11" fill="#ffffff" opacity="1" data-original="#000000"></circle></g></svg>