<svg id="_1" height="512" viewBox="0 0 512 512" width="512" xmlns="http://www.w3.org/2000/svg" data-name="1"><path d="m43.9 114.6h28.28v28.28h-28.28z"/><path d="m439.82 114.6h28.28v28.28h-28.28z"/><path d="m43.9 142.88h28.28v28.28h-28.28z"/><path d="m439.82 142.88h28.28v28.28h-28.28z"/><path d="m43.9 171.16h28.28v28.28h-28.28z"/><path d="m439.82 171.16h28.28v28.28h-28.28z"/><path d="m72.18 227.72h28.28v28.28h-28.28z"/><path d="m411.54 227.72h28.28v28.28h-28.28z"/><path d="m43.9 199.44h28.28v28.28h-28.28z"/><path d="m439.82 199.44h28.28v28.28h-28.28z"/><path d="m72.18 256h28.28v28.28h-28.28z"/><path d="m411.54 256h28.28v28.28h-28.28z"/><path d="m100.46 284.28h28.28v28.28h-28.28z"/><path d="m383.26 284.28h28.28v28.28h-28.28z"/><path d="m128.74 312.56h28.28v28.28h-28.28z"/><path d="m354.98 312.56h28.28v28.28h-28.28z"/><path d="m157.02 340.84h28.28v28.28h-28.28z"/><path d="m326.7 340.84h28.28v28.28h-28.28z"/><path d="m185.3 369.12h28.28v28.28h-28.28z"/><path d="m298.42 369.12h28.28v28.28h-28.28z"/><path d="m72.18 86.32h28.28v28.28h-28.28z"/><path d="m411.54 86.32h28.28v28.28h-28.28z"/><path d="m128.74 58.04h28.28v28.28h-28.28z"/><path d="m100.46 58.04h28.28v28.28h-28.28z"/><path d="m157.02 58.04h28.28v28.28h-28.28z"/><path d="m128.74 86.32h28.28v28.28h-28.28z" fill="#ff3646"/><path d="m100.46 86.32h28.28v28.28h-28.28z" fill="#ff3646"/><path d="m157.02 86.32h28.28v28.28h-28.28z" fill="#ff3646"/><path d="m354.98 86.32h28.28v28.28h-28.28z" fill="#ff3646"/><path d="m326.7 86.32h28.28v28.28h-28.28z" fill="#ff3646"/><path d="m383.26 86.32h28.28v28.28h-28.28z" fill="#ff3646"/><path d="m185.3 86.32h28.28v28.28h-28.28z"/><path d="m72.18 114.6h28.28v28.28h-28.28z" fill="#ff3646"/><path d="m128.74 114.6h28.28v28.28h-28.28z" fill="#fff"/><path d="m100.46 114.6h28.28v28.28h-28.28z" fill="#fff"/><path d="m157.02 114.6h28.28v28.28h-28.28z" fill="#ff3646"/><path d="m185.3 114.6h28.28v28.28h-28.28z" fill="#ff3646"/><path d="m72.18 142.88h28.28v28.28h-28.28z" fill="#ff3646"/><path d="m128.74 142.88h28.28v28.28h-28.28z" fill="#ff3646"/><path d="m100.46 142.88h28.28v28.28h-28.28z" fill="#fff"/><g fill="#ff3646"><path d="m157.02 142.88h28.28v28.28h-28.28z"/><path d="m185.3 142.88h28.28v28.28h-28.28z"/><path d="m72.18 171.16h28.28v28.28h-28.28z"/><path d="m128.74 171.16h28.28v28.28h-28.28z"/><path d="m100.46 171.16h28.28v28.28h-28.28z"/><path d="m157.02 171.16h28.28v28.28h-28.28z"/><path d="m185.3 171.16h28.28v28.28h-28.28z"/><path d="m72.18 199.44h28.28v28.28h-28.28z"/><path d="m128.74 199.44h28.28v28.28h-28.28z"/><path d="m100.46 199.44h28.28v28.28h-28.28z"/><path d="m157.02 199.44h28.28v28.28h-28.28z"/><path d="m185.3 199.44h28.28v28.28h-28.28z"/><path d="m128.74 227.72h28.28v28.28h-28.28z"/><path d="m100.46 227.72h28.28v28.28h-28.28z"/><path d="m157.02 227.72h28.28v28.28h-28.28z"/><path d="m185.3 227.72h28.28v28.28h-28.28z"/><path d="m128.74 256h28.28v28.28h-28.28z"/><path d="m100.46 256h28.28v28.28h-28.28z"/><path d="m157.02 256h28.28v28.28h-28.28z"/><path d="m185.3 256h28.28v28.28h-28.28z"/><path d="m128.74 284.28h28.28v28.28h-28.28z"/><path d="m157.02 284.28h28.28v28.28h-28.28z"/><path d="m185.3 284.28h28.28v28.28h-28.28z"/><path d="m157.02 312.56h28.28v28.28h-28.28z"/><path d="m185.3 312.56h28.28v28.28h-28.28z"/><path d="m185.3 340.84h28.28v28.28h-28.28z"/><path d="m298.42 114.6h28.28v28.28h-28.28z"/><path d="m354.98 114.6h28.28v28.28h-28.28z"/><path d="m326.7 114.6h28.28v28.28h-28.28z"/><path d="m383.26 114.6h28.28v28.28h-28.28z"/><path d="m411.54 114.6h28.28v28.28h-28.28z"/><path d="m298.42 142.88h28.28v28.28h-28.28z"/><path d="m354.98 142.88h28.28v28.28h-28.28z"/><path d="m326.7 142.88h28.28v28.28h-28.28z"/><path d="m383.26 142.88h28.28v28.28h-28.28z"/><path d="m411.54 142.88h28.28v28.28h-28.28z"/><path d="m298.42 171.16h28.28v28.28h-28.28z"/><path d="m354.98 171.16h28.28v28.28h-28.28z"/><path d="m326.7 171.16h28.28v28.28h-28.28z"/><path d="m383.26 171.16h28.28v28.28h-28.28z"/><path d="m411.54 171.16h28.28v28.28h-28.28z"/><path d="m298.42 199.44h28.28v28.28h-28.28z"/><path d="m354.98 199.44h28.28v28.28h-28.28z"/><path d="m326.7 199.44h28.28v28.28h-28.28z"/><path d="m383.26 199.44h28.28v28.28h-28.28z"/><path d="m298.42 227.72h28.28v28.28h-28.28z"/><path d="m354.98 227.72h28.28v28.28h-28.28z"/><path d="m326.7 227.72h28.28v28.28h-28.28z"/><path d="m383.26 227.72h28.28v28.28h-28.28z"/><path d="m298.42 256h28.28v28.28h-28.28z"/><path d="m354.98 256h28.28v28.28h-28.28z"/><path d="m326.7 256h28.28v28.28h-28.28z"/><path d="m298.42 284.28h28.28v28.28h-28.28z"/><path d="m354.98 284.28h28.28v28.28h-28.28z"/><path d="m326.7 284.28h28.28v28.28h-28.28z"/><path d="m298.42 312.56h28.28v28.28h-28.28z"/><path d="m298.42 340.84h28.28v28.28h-28.28z"/><path d="m326.7 312.56h28.28v28.28h-28.28z"/><path d="m383.26 256h28.28v28.28h-28.28z"/><path d="m411.54 199.44h28.28v28.28h-28.28z"/></g><path d="m213.58 114.6h28.28v28.28h-28.28z"/><path d="m241.86 142.88h28.28v28.28h-28.28z"/><path d="m298.42 86.32h28.28v28.28h-28.28z"/><path d="m270.14 114.6h28.28v28.28h-28.28z"/><path d="m213.58 142.88h28.28v28.28h-28.28z" fill="#ff3646"/><path d="m241.86 171.16h28.28v28.28h-28.28z" fill="#ff3646"/><path d="m270.14 142.88h28.28v28.28h-28.28z" fill="#ff3646"/><path d="m213.58 171.16h28.28v28.28h-28.28z" fill="#ff3646"/><path d="m241.86 199.44h28.28v28.28h-28.28z" fill="#ff3646"/><path d="m270.14 171.16h28.28v28.28h-28.28z" fill="#ff3646"/><path d="m213.58 199.44h28.28v28.28h-28.28z" fill="#ff3646"/><path d="m241.86 227.72h28.28v28.28h-28.28z" fill="#ff3646"/><path d="m270.14 199.44h28.28v28.28h-28.28z" fill="#ff3646"/><path d="m213.58 227.72h28.28v28.28h-28.28z" fill="#ff3646"/><path d="m241.86 256h28.28v28.28h-28.28z" fill="#ff3646"/><path d="m270.14 227.72h28.28v28.28h-28.28z" fill="#ff3646"/><path d="m213.58 256h28.28v28.28h-28.28z" fill="#ff3646"/><path d="m241.86 284.28h28.28v28.28h-28.28z" fill="#ff3646"/><path d="m270.14 256h28.28v28.28h-28.28z" fill="#ff3646"/><path d="m213.58 284.28h28.28v28.28h-28.28z" fill="#ff3646"/><path d="m241.86 312.56h28.28v28.28h-28.28z" fill="#ff3646"/><path d="m270.14 284.28h28.28v28.28h-28.28z" fill="#ff3646"/><path d="m213.58 312.56h28.28v28.28h-28.28z" fill="#ff3646"/><path d="m241.86 340.84h28.28v28.28h-28.28z" fill="#ff3646"/><path d="m270.14 312.56h28.28v28.28h-28.28z" fill="#ff3646"/><path d="m213.58 340.84h28.28v28.28h-28.28z" fill="#ff3646"/><path d="m241.86 369.12h28.28v28.28h-28.28z" fill="#ff3646"/><path d="m270.14 340.84h28.28v28.28h-28.28z" fill="#ff3646"/><path d="m213.58 369.12h28.28v28.28h-28.28z" fill="#ff3646"/><path d="m241.86 397.4h28.28v28.28h-28.28z" fill="#ff3646"/><path d="m270.14 369.12h28.28v28.28h-28.28z" fill="#ff3646"/><path d="m213.58 397.4h28.28v28.28h-28.28z"/><path d="m241.86 425.68h28.28v28.28h-28.28z"/><path d="m270.14 397.4h28.28v28.28h-28.28z"/><path d="m326.7 58.04h28.28v28.28h-28.28z"/><path d="m354.98 58.04h28.28v28.28h-28.28z"/><path d="m383.26 58.04h28.28v28.28h-28.28z"/></svg>