<svg xmlns="http://www.w3.org/2000/svg" version="1.1" xmlns:xlink="http://www.w3.org/1999/xlink" width="512" height="512" x="0" y="0" viewBox="0 0 32 32" style="enable-background:new 0 0 512 512" xml:space="preserve"><g><path d="M5.61 9.6v7.373a1 1 0 1 0 2 0V9.6a1 1 0 1 0-2 0zM3 16.13a1 1 0 0 0 1-1v-3.687a1 1 0 1 0-2 0v3.687a1 1 0 0 0 1 1zM29 10.443a1 1 0 0 0-1 1v3.687a1 1 0 1 0 2 0v-3.687a1 1 0 0 0-1-1zM25.39 8.6a1 1 0 0 0-1 1v7.373a1 1 0 1 0 2 0V9.6a1 1 0 0 0-1-1zM22.704 16.852v-7.13c0-3.697-3.008-6.704-6.704-6.704S9.296 6.025 9.296 9.722v7.13c0 3.696 3.008 6.703 6.704 6.703s6.704-3.007 6.704-6.703zm-2 0c0 2.593-2.11 4.703-4.704 4.703s-4.704-2.11-4.704-4.703v-7.13c0-2.594 2.11-4.704 4.704-4.704s4.704 2.11 4.704 4.704zM16 24.555a1 1 0 0 0-1 1v1.427h-2.564a1 1 0 1 0 0 2h7.128a1 1 0 1 0 0-2H17v-1.427a1 1 0 0 0-1-1z" fill="#ffffff" opacity="1" data-original="#000000"></path><path d="M18.5 14.287h-5a1 1 0 1 0 0 2h5a1 1 0 1 0 0-2zM18.5 10.287h-5a1 1 0 1 0 0 2h5a1 1 0 1 0 0-2z" fill="#ffffff" opacity="1" data-original="#000000"></path></g></svg>