<svg xmlns="http://www.w3.org/2000/svg" version="1.1" xmlns:xlink="http://www.w3.org/1999/xlink" width="512" height="512" x="0" y="0" viewBox="0 0 409.6 409.6" style="enable-background:new 0 0 512 512" xml:space="preserve" class=""><g><path d="M204.8 0C91.699 0 0 91.699 0 204.8s91.699 204.8 204.8 204.8c113.116 0 204.8-91.699 204.8-204.8S317.916 0 204.8 0zm88.166 297.964c-3 5.069-9.4 7.137-14.879 4.721-1.121-.502-2.135-1.137-3.185-1.736-20.337-12.083-42.25-19.548-65.567-23.102-14.31-2.186-28.692-2.949-43.151-2.386-18.683.737-37.125 3.302-55.383 7.383-1.848.384-3.743.763-5.617.783a11.45 11.45 0 0 1-11.423-9.4c-1.05-5.734 1.812-11.136 7.086-13.251 1.126-.471 2.314-.748 3.477-.998 14.935-3.369 30.008-5.898 45.266-7.183 8.52-.737 17.065-1.014 25.6-1.5 25.242.266 49.951 3.686 73.917 11.802 13.235 4.434 25.866 10.214 37.852 17.367 1.05.599 2.099 1.198 3.052 1.935a11.845 11.845 0 0 1 2.955 15.565zm23.517-52.265c-4.25 6.999-13.051 9.165-20.383 5.012-4.152-2.299-8.233-4.767-12.467-6.917-19.384-9.887-39.936-16.287-61.271-20.316-16.415-3.098-33.009-4.634-50.616-4.7-21.949.102-44.406 2.816-66.365 9.298-3.558 1.065-7.148 1.167-10.665-.287-5.699-2.284-9.411-8.013-9.216-14.049.215-6.313 4.065-11.802 10.143-13.65 6.2-1.92 12.477-3.548 18.78-4.931 15.56-3.466 31.319-5.284 47.232-5.883 34.258-1.3 67.743 3.118 100.378 13.599 16.517 5.268 32.328 12.201 47.232 21.084.737.451 1.485.886 2.222 1.336 7.776 4.772 8.713 14.341 4.996 20.404zm2.283-54.318c-8.299-4.685-16.763-8.934-25.6-12.467-17.551-7.035-35.732-11.75-54.328-15.037a341.29 341.29 0 0 0-39.066-4.582c-13.624-.819-27.249-.916-40.909-.215-15.631.819-31.14 2.534-46.449 5.837-5.642 1.213-11.223 2.765-16.814 4.265-3.436.917-6.799 1.034-10.22.015-7.465-2.166-12.605-8.883-12.831-16.701-.225-7.634 4.475-14.699 11.858-17.131 5.391-1.766 10.941-3.185 16.502-4.449 13.727-3.185 27.643-5.151 41.677-6.415 14.899-1.367 29.834-1.802 44.774-1.382 36.803 1.05 72.883 6.451 107.817 18.499 14.234 4.915 27.935 11.013 40.97 18.616 4.649 2.719 7.767 6.533 8.95 11.802.282 1.27.348 2.586.517 3.85-.065 13.897-14.647 22.412-26.848 15.495z" fill="#ffffff" opacity="1" data-original="#000000" class=""></path></g></svg>