<svg xmlns="http://www.w3.org/2000/svg" xmlns:xlink="http://www.w3.org/1999/xlink" id="Layer_1" x="0px" y="0px" viewBox="0 0 1500 1500" style="enable-background:new 0 0 1500 1500;" xml:space="preserve"><style type="text/css">	.st0{fill:#FFFFFF;}	.st1{fill:#FFFFFF;stroke:#000000;stroke-width:25;stroke-linecap:round;stroke-linejoin:round;}	.st2{enable-background:new    ;}</style><g id="Layer_2_00000084497571879023713190000013233675525188501677_"></g><g id="Layer_5">	<g>		<g>			<polygon points="1248.5,1260.37 934.03,1260.37 934.03,613.7 694.52,613.7 934.82,239.59 1241.71,239.59 1295.28,239.63     1295.28,1260.4    "></polygon>			<path class="st0" d="M1241.7,251.59l41.58,0.03v996.77l-34.79-0.02H946.02V625.7v-24h-24H716.49l224.88-350.11L1241.7,251.59     M1241.72,227.59H928.27L672.55,625.7h249.48l0,0l0,0l0,0v646.66h0.01h326.46l58.79,0.04V227.63L1241.72,227.59L1241.72,227.59z     M1307.28,227.63L1307.28,227.63L1307.28,227.63L1307.28,227.63z"></path>		</g>		<polyline class="st1" points="596.53,697.14 601.3,242.13 601.04,242.13 235.9,242.13 234.77,1261.31 592.86,1261.31    592.86,969.8 837.24,969.79 837.24,969.79 839.14,694.59 596.53,697.14   "></polyline>	</g>	<g class="st2">		<path class="st0" d="M1179.07,1046.18c8.52,0,15.39-2.82,20.62-8.47c5.24-5.65,7.85-13.81,7.85-24.5c0-9.77-1.94-17.55-5.84-23.35   c-3.89-5.8-9.73-8.7-17.52-8.7c-6.33,0-11.13,2.29-14.42,6.87s-5.9,9.92-7.85,16.03l-12.77,44.42   c-4.87,17.4-11.74,30.53-20.62,39.38c-8.88,8.86-20.26,13.28-34.13,13.28c-8.03,0-15.63-1.67-22.81-5.04   c-7.17-3.36-13.44-8.7-18.8-16.03c-5.35-7.33-9.61-16.71-12.78-28.16c-3.16-11.45-4.75-25.26-4.75-41.44   c0-28.69,4.87-49.91,14.6-63.65c9.74-13.74,23.49-20.61,41.25-20.61h8.03v56.78c-10.22,0-17.7,2.06-22.45,6.18   c-4.75,4.12-7.12,11.38-7.12,21.75c0,7.94,1.77,14.88,5.29,20.84c3.53,5.95,8.82,8.93,15.88,8.93c4.87,0,9.25-1.9,13.14-5.72   c3.9-3.81,7.18-11.06,9.86-21.75l10.22-38.01c5.36-19.84,12.35-33.89,20.99-42.13c8.64-8.24,20.38-12.36,35.22-12.36   c10.47,0,19.53,2.29,27.19,6.87s14.05,10.92,19.16,19c5.11,8.09,8.76,17.71,10.95,28.85c2.19,11.15,3.28,23.43,3.28,36.86   c0,17.71-1.34,32.44-4.01,44.19c-2.67,11.76-6.69,21.06-12.04,27.93c-5.35,6.87-11.86,11.68-19.53,14.42   c-7.67,2.75-16.24,4.12-25.73,4.12h-6.94v-56.78H1179.07z"></path>		<path class="st0" d="M973.21,792.03h43.07v63.19h-43.07V792.03z M1040.37,792.03h196.37v63.19h-196.37V792.03z"></path>		<path class="st0" d="M984.16,639.09h56.21v-36.63h34.31v36.63h106.21c7.79,0,13.32-1.45,16.61-4.35c3.29-2.9,4.93-8.93,4.93-18.09   c0-2.44-0.06-4.88-0.18-7.33c-0.12-2.44-0.3-4.73-0.55-6.87h35.04c0,7.03,0.18,13.82,0.55,20.38c0.36,6.57,0.55,13.51,0.55,20.83   c0,12.21-0.67,22.21-2.01,30c-1.33,7.78-4.02,13.74-8.03,17.86c-4.01,4.12-9.31,6.95-15.88,8.47c-6.57,1.53-14.84,2.29-24.82,2.29   h-112.42v32.05h-34.31v-32.05h-56.21V639.09z"></path>		<path class="st0" d="M1161.91,494.84c5.84,0,11.5-0.53,16.97-1.6c5.47-1.07,10.35-2.82,14.6-5.27c4.26-2.44,7.67-5.64,10.22-9.62   c2.55-3.96,3.83-8.85,3.83-14.65c0-10.68-3.04-18.47-9.12-23.35c-6.08-4.88-15.33-8.24-27.74-10.07v-56.78   c22.88,1.22,40.28,8.86,52.2,22.9c11.93,14.05,17.88,36.18,17.88,66.4c0,22.9-3.04,40.76-9.12,53.58   c-6.08,12.82-14.11,22.29-24.09,28.39c-9.97,6.11-21.17,9.85-33.58,11.22s-24.82,2.06-37.23,2.06c-13.14,0-25.79-1.14-37.96-3.43   c-12.17-2.29-23-6.87-32.49-13.74c-9.49-6.87-17.03-16.71-22.63-29.54c-5.59-12.82-8.4-29.92-8.4-51.29   c0-18.32,2.37-33.35,7.12-45.11c4.75-11.75,11.44-20.99,20.08-27.71c8.64-6.71,19.11-11.29,31.39-13.74   c12.29-2.44,25.98-3.66,41.06-3.66h11.32v125.01H1161.91z M1096.39,432.11c-5.71,0.92-10.58,2.52-14.6,4.81s-7.05,5.5-9.12,9.62   c-2.06,4.12-3.1,9.39-3.1,15.8s1.16,11.68,3.47,15.8c2.32,4.12,5.35,7.41,9.12,9.84c3.78,2.45,7.97,4.2,12.59,5.27   c4.63,1.07,9.25,1.6,13.87,1.6h7.67v-64.57C1108.75,430.59,1102.12,431.19,1096.39,432.11z"></path>	</g>	<g id="Layer_3">	</g></g><text transform="matrix(1 0 0 1 -1458.3887 686.2497)" style="font-family:'MyriadPro-Regular'; font-size:12px;">Lorem ipsum</text></svg>