<svg id="Layer_1" height="512" viewBox="0 0 48 48" width="512" xmlns="http://www.w3.org/2000/svg" data-name="Layer 1"><path d="m36 34a1 1 0 0 1 -1-1v-13.823a2.994 2.994 0 0 1 3-3 10.178 10.178 0 0 0 4.552-1.075 1 1 0 0 1 .892 1.79 12.166 12.166 0 0 1 -5.444 1.288 1 1 0 0 0 -1 1v13.82a1 1 0 0 1 -1 1z"/><path d="m31 27a6 6 0 1 0 6 6 6.006 6.006 0 0 0 -6-6z"/><path d="m34 40.41v.59a3.009 3.009 0 0 1 -3 3h-24a3.009 3.009 0 0 1 -3-3v-2a15 15 0 0 1 22.81-12.81 8 8 0 0 0 4.19 14.81 7.9 7.9 0 0 0 3-.59z"/><circle cx="19" cy="15" r="11"/></svg>