<svg xmlns="http://www.w3.org/2000/svg" version="1.1" xmlns:xlink="http://www.w3.org/1999/xlink" width="512" height="512" x="0" y="0" viewBox="0 0 292.512 292.512" style="enable-background:new 0 0 512 512" xml:space="preserve" class=""><g><path d="M233.383 263.743V28.77c0-15.89-12.873-28.77-28.77-28.77H87.898c-15.895 0-28.77 12.88-28.77 28.77v234.973c0 15.887 12.875 28.77 28.77 28.77h116.715c15.897-.001 28.77-12.884 28.77-28.77zm-87.125 7.217c-24.896 0-45.07-20.184-45.07-45.07 0-24.891 20.174-45.07 45.07-45.07 24.883 0 45.068 20.18 45.068 45.07 0 24.887-20.184 45.07-45.068 45.07zM98.614 158.968c-15.907 0-18.196-7.602-18.196-23.509v-87.16c0-15.907 2.289-23.506 18.196-23.506h95.28c15.917 0 18.206 7.599 18.206 23.506v87.16c0 15.907-2.289 23.509-18.206 23.509h-95.28z" fill="#000000" opacity="1" data-original="#000000" class=""></path><circle cx="146.66" cy="223.834" r="15.907" fill="#000000" opacity="1" data-original="#000000" class=""></circle><path d="M174.124 219.966v1.839l-5.333-3.061c-1.165-.668-2.112-.114-2.112 1.222v7.736c0 1.352.952 1.89 2.112 1.222l5.333-3.055v1.833c0 1.352.953 1.89 2.107 1.222l6.162-3.536v2.139c0 1.341.74 2.429 1.652 2.429.911 0 1.642-1.088 1.642-2.429v-7.384c0-1.336-.741-2.434-1.642-2.434-.912 0-1.652 1.098-1.652 2.434v2.128l-6.162-3.531c-1.154-.663-2.107-.119-2.107 1.226zM123.723 218.745l-5.336 3.061v-1.839c0-1.346-.953-1.895-2.11-1.227l-6.159 3.531v-2.128c0-1.336-.738-2.434-1.644-2.434-.909 0-1.649 1.098-1.649 2.434v7.384c0 1.341.735 2.429 1.649 2.429.911 0 1.644-1.088 1.644-2.429v-2.139l6.159 3.536c1.163.668 2.11.125 2.11-1.222v-1.833l5.336 3.055c1.16.668 2.115.125 2.115-1.222v-7.736c-.005-1.345-.96-1.889-2.115-1.221zM145.394 251.978l-6.532-3.749c-1.119-.643-2.043-.114-2.043 1.181v7.478c0 1.294.924 1.827 2.043 1.18l6.532-3.748c1.128-.644 1.128-1.69 0-2.342zM149.238 247.235c-.88 0-1.598 1.051-1.598 2.351v7.13c0 1.3.717 2.346 1.598 2.346.88 0 1.595-1.046 1.595-2.346v-7.13c0-1.3-.715-2.351-1.595-2.351zM154.259 247.235c-.881 0-1.596 1.051-1.596 2.351v7.13c0 1.3.715 2.346 1.596 2.346.883 0 1.598-1.046 1.598-2.346v-7.13c-.001-1.3-.715-2.351-1.598-2.351zM131.697 201.335c.238 0 .435-.077.567-.237.142-.156.217-.395.217-.721v-5.758l1.336 5.318c.042.171.096.342.132.502.044.16.106.306.176.44.085.129.187.248.324.331a.93.93 0 0 0 .497.124c.272 0 .468-.072.621-.196.143-.135.249-.285.303-.445.052-.166.122-.414.217-.762l1.336-5.317v5.758c0 .321.073.56.217.72a.69.69 0 0 0 .552.243.72.72 0 0 0 .567-.243c.143-.16.217-.398.217-.72v-6.597c0-.362-.106-.611-.292-.74-.184-.125-.445-.192-.77-.192h-.53c-.311 0-.539.031-.684.089a.597.597 0 0 0-.313.305c-.072.156-.143.394-.238.73l-1.214 4.562-1.214-4.562a6.01 6.01 0 0 0-.228-.73.597.597 0 0 0-.324-.305c-.132-.058-.37-.089-.683-.089h-.521c-.329 0-.578.067-.774.192-.184.129-.279.378-.279.74v6.597c0 .331.072.56.217.72a.75.75 0 0 0 .568.243zM141.74 201.191h4.596c.272 0 .469-.062.601-.182a.629.629 0 0 0 .197-.481.666.666 0 0 0-.197-.497c-.132-.124-.329-.187-.601-.187h-3.933v-2.366h3.5c.259 0 .456-.067.578-.181a.617.617 0 0 0 .184-.467.613.613 0 0 0-.184-.455c-.122-.114-.324-.171-.578-.171h-3.5v-2.051h3.801c.271 0 .466-.057.601-.176a.61.61 0 0 0 .194-.477.6.6 0 0 0-.194-.472c-.135-.119-.329-.181-.601-.181h-4.464c-.228 0-.435.036-.577.108a.6.6 0 0 0-.339.337 1.309 1.309 0 0 0-.119.585v6.281c0 .357.085.626.251.781.152.18.424.252.784.252zM149.301 201.335a.748.748 0 0 0 .566-.243c.146-.16.218-.398.218-.725v-4.889l3.172 4.862c.09.135.186.259.282.384.083.135.184.238.29.331a.85.85 0 0 0 .339.207c.122.042.262.072.414.072.601 0 .901-.372.901-1.098v-6.565c0-.326-.072-.564-.207-.725-.146-.166-.332-.244-.58-.244a.696.696 0 0 0-.555.244c-.132.16-.207.398-.207.725v4.961l-3.238-4.92c-.096-.14-.187-.279-.272-.414a2.056 2.056 0 0 0-.248-.321.814.814 0 0 0-.29-.196.851.851 0 0 0-.384-.083c-.196 0-.37.062-.551.16a.917.917 0 0 0-.35.42c-.065.155-.096.373-.096.642v6.437c0 .316.075.555.217.72.143.175.33.258.579.258zM163.509 192.709a.772.772 0 0 0-.61.259c-.14.165-.229.425-.229.771v4.137c0 .71-.129 1.238-.398 1.595-.274.353-.74.528-1.403.528-.477 0-.859-.088-1.118-.264a1.293 1.293 0 0 1-.554-.725 3.973 3.973 0 0 1-.156-1.176v-4.096c0-.347-.072-.601-.228-.771a.798.798 0 0 0-.616-.259.813.813 0 0 0-.611.259c-.145.165-.228.425-.228.771v4.013c0 .627.072 1.17.207 1.626.13.456.347.823.643 1.118.29.29.663.503 1.129.643.466.129 1.01.207 1.657.207.538 0 1.015-.067 1.408-.197a2.845 2.845 0 0 0 1.066-.61c.352-.331.59-.715.715-1.149.124-.436.196-.989.196-1.637v-4.013c0-.347-.083-.601-.238-.771a.819.819 0 0 0-.632-.259z" fill="#000000" opacity="1" data-original="#000000" class=""></path></g></svg>