<svg id="layer_1" enable-background="new 0 0 32 32" viewBox="0 0 32 32" xmlns="http://www.w3.org/2000/svg"><path d="m5.609375 9.5996094v7.3735352c0 .5522461.4472656 1 1 1s1-.4477539 1-1v-7.3735352c0-.5522461-.4472656-1-1-1s-1 .4477539-1 1z"/><path d="m3 16.1298828c.5527344 0 1-.4477539 1-1v-3.6865234c0-.5522461-.4472656-1-1-1s-1 .4477539-1 1v3.6865234c0 .5522461.4472656 1 1 1z"/><path d="m29 10.4433594c-.5527344 0-1 .4477539-1 1v3.6865234c0 .5522461.4472656 1 1 1s1-.4477539 1-1v-3.6865234c0-.5522461-.4472656-1-1-1z"/><path d="m25.390625 8.5996094c-.5527344 0-1 .4477539-1 1v7.3735352c0 .5522461.4472656 1 1 1s1-.4477539 1-1v-7.3735352c0-.5522461-.4472656-1-1-1z"/><path d="m22.7041016 16.8515625v-7.1298828c0-3.6962891-3.0078125-6.7036133-6.7041016-6.7036133s-6.7041016 3.0073242-6.7041016 6.7036133v7.1298828c0 3.6962891 3.0078125 6.7036133 6.7041016 6.7036133s6.7041016-3.0073242 6.7041016-6.7036133zm-2 0c0 2.59375-2.1103516 4.7036133-4.7041016 4.7036133s-4.7041016-2.1098633-4.7041016-4.7036133v-7.1298828c0-2.59375 2.1103516-4.7036133 4.7041016-4.7036133s4.7041016 2.1098633 4.7041016 4.7036133z"/><path d="m16 24.5551758c-.5527344 0-1 .4477539-1 1v1.4267578h-2.5644531c-.5527344 0-1 .4477539-1 1s.4472656 1 1 1h7.1289062c.5527344 0 1-.4477539 1-1s-.4472656-1-1-1h-2.5644531v-1.4267578c0-.5522461-.4472656-1-1-1z"/><path d="m18.5 14.2866211h-5c-.5527344 0-1 .4477539-1 1s.4472656 1 1 1h5c.5527344 0 1-.4477539 1-1s-.4472656-1-1-1z"/><path d="m18.5 10.2866211h-5c-.5527344 0-1 .4477539-1 1s.4472656 1 1 1h5c.5527344 0 1-.4477539 1-1s-.4472656-1-1-1z"/></svg>